<?xml version="1.0" encoding="UTF-8" standalone="no"?>
<svg
   xmlns:dc="http://purl.org/dc/elements/1.1/"
   xmlns:cc="http://creativecommons.org/ns#"
   xmlns:rdf="http://www.w3.org/1999/02/22-rdf-syntax-ns#"
   xmlns:svg="http://www.w3.org/2000/svg"
   xmlns="http://www.w3.org/2000/svg"
   viewBox="0 0 348 150.66667"
   height="150.66667"
   width="348"
   xml:space="preserve"
   id="svg2"
   version="1.1"><metadata
     id="metadata8"><rdf:RDF><cc:Work
         rdf:about=""><dc:format>image/svg+xml</dc:format><dc:type
           rdf:resource="http://purl.org/dc/dcmitype/StillImage" /></cc:Work></rdf:RDF></metadata><defs
     id="defs6" /><g
     transform="matrix(1.3333333,0,0,-1.3333333,0,150.66667)"
     id="g10"><g
       transform="scale(0.1)"
       id="g12"><path
         id="path14"
         style="fill:#231f20;fill-opacity:1;fill-rule:evenodd;stroke:none"
         d="m 2523.93,601.715 h -261.69 c -47.34,0 -85.96,-38.61 -85.96,-85.953 V 290.363 c 0,-47.343 38.62,-85.957 85.96,-85.957 h 261.69 c 47.34,0 85.95,38.614 85.95,85.957 v 225.399 c 0,47.343 -38.61,85.953 -85.95,85.953 z m -961.52,296.414 h -32.17 v 5.637 c 8.81,-0.18 14.41,1.722 10.49,9.468 -5.95,11.676 19.82,11.059 23.62,8.536 6.73,-4.469 2.3,-17.399 -1.94,-23.641 z m -44.01,-7.82 h 39.02 c -4.32,-6.543 -16.49,-28.664 -24.33,-28.696 -3.17,4.403 -13.56,18.727 -14.69,28.696 z m 745.21,-374.551 h 258.94 V 290.363 h -258.94 z m -531.4,0 h 360.34 v 0.004 c 0,47.343 -38.61,85.953 -85.95,85.953 h -276.62 c -47.33,0 -85.95,-38.61 -85.95,-85.953 V 290.363 c 0,-47.343 38.62,-85.957 85.95,-85.957 h 276.62 c 47.34,0 85.95,38.614 85.95,85.957 V 439.09 h -292.44 v -0.004 c 0,-36.57 29.83,-66.398 66.4,-66.398 h 144.03 v -82.325 h -278.33 z m -1125.19,0 H 951 v 0.004 c 0,47.343 -38.617,85.953 -85.961,85.953 H 598.836 c -47.344,0 -85.957,-38.61 -85.957,-85.953 v -69.723 c 0,-47.344 38.613,-85.953 85.957,-85.953 h 266.93 V 290.363 H 512.879 v 0 c 0,-47.343 38.613,-85.957 85.957,-85.957 h 275.117 c 47.344,0 85.953,38.614 85.953,85.957 v 69.723 c 0,47.34 -38.609,85.953 -85.953,85.953 H 607.02 Z m -495.274,0 h 324.727 v 0.004 c 0,47.343 -38.618,85.953 -85.961,85.953 H 88.8281 c -47.3437,0 -85.95701,-38.61 -85.95701,-85.953 V 290.363 c 0,-47.343 38.61331,-85.957 85.95701,-85.957 H 350.512 c 47.343,0 85.961,38.614 85.961,85.957 H 111.746 Z m 1533.394,421.5 c -1.71,-0.863 -3.67,-1.703 -6.43,-2.223 -12.28,-17.375 -4.87,-15.34 -26.52,-29.847 0.05,-29.11 0.88,-32.239 7.71,-58.032 0.17,-0.617 0.08,-1.215 -0.26,-1.758 -0.34,-0.543 -0.82,-0.894 -1.44,-1.023 -5.24,-1.125 -12.76,-3.059 -17.12,-3.875 0.14,-0.918 2.21,-17.402 -0.13,-29.676 -3.66,-19.269 -49.52,-61.433 -60.47,-63.59 -15.15,-2.984 -32.08,10.391 -58.55,22.012 -7.3,3.203 -31.78,19.297 -44.6,23.574 -10.63,3.543 -21.29,-22.336 -8.09,-29.281 6.15,-3.23 15.96,-7.582 19.06,-15.609 9.18,-23.801 -1.45,-115.594 -20.37,-134.051 -8.98,0.07 -16.54,8.316 -23.21,6.16 -11.92,-6.519 -4.37,-42.93 0,-49.266 73.27,-75.378 64.57,-131.199 95.68,-172.886 14.19,0 4.88,-15.028 15.64,-32.684 2.86,-9.07 -0.83,-24.473 -2.38,-30.312 0,-7.582 0,-15.161 0,-22.743 -0.78,-2.367 -1.57,-4.734 -2.37,-7.101 0,-6.633 0,-13.266 0,-19.895 -2.17,-9.691 -4.57,-22.683 -6.62,-31.738 -4.34,-19.094 12.45,-33.934 2.36,-52.101 0,-11.168 0.04,-8.946 -6.63,-18 0,-17.344 -4.08,-53.883 0,-66.79 2.85,-8.98 35.41,-47.0386 43.58,-50.6832 19.69,-8.7695 48.72,-6.8828 39.31,-37.8945 -57.64,-17.6914 -94.44,9.9766 -125.15,10.4258 l -1.44,-5.2852 c -19.67,-0.0312 -35.38,4.8125 -39.66,6.2305 -0.04,5.3125 6.35,46.0586 8.52,52.5742 2.21,3.4766 4.42,6.9532 6.63,10.4224 2.39,6.937 -2.43,57.828 -2.84,71.527 -12.28,9.019 -14.68,36.523 -14.68,51.629 -3.54,11.691 -3.54,25.551 -4.26,40.738 -0.34,7.121 -4.59,17.586 -1.9,26.523 1.83,6.098 8.71,8.762 10.42,13.739 0,5.679 0,11.367 0,17.051 3.24,17.941 2.23,26.207 -8.52,36.945 -26.96,-0.352 -30.67,-1.649 -45.48,21.316 -4.6,7.137 -42.3,66.617 -45.94,68.207 -31.37,13.692 -25.13,8.364 -38.85,32.684 -0.56,-0.012 -8.91,-2.789 -16.29,-13.828 -11.22,-16.77 -31.09,-71.274 -36.76,-90.379 -3.16,-10.66 0.02,-22.442 -4.73,-31.262 -3.44,-6.387 -14.64,-8.437 -17.06,-12.789 -10.99,-19.805 -2.75,-18.258 -23.68,-32.207 -3.77,-4.855 -3.88,-12.144 -6.63,-18 -1.58,-2.211 -3.16,-4.422 -4.74,-6.633 -3.52,-7.558 3.75,-21.34 2.37,-26.051 -3.62,-12.41 -8.4,-24.933 -13.26,-36.476 -9.59,-22.762 -8.35,-53 -18.02,-66.996 -4.86,-7.031 -16.61,-0.176 -25.56,-5.949 -0.52,-4.891 -14.74,-37.391 -17.53,-46.4223 0,-17.207 0,-34.418 0,-51.6289 2.68,-8.7031 10.02,-16.9883 7.83,-28 -2.32,-11.73049 -43.12,-11.54689 -65.26,-8.35549 -14.82,2.13672 -19.27,13.05859 -19.02,25.69139 0.29,14.9063 30.44,111.7653 28.61,118.1913 -22.89,25.75 6.13,52.254 14.69,76.262 4.17,11.703 1.61,28.035 6.15,38.836 8.05,14.683 16.11,29.371 24.16,44.051 14.69,13.875 8.16,14.574 16.11,27.003 6.9,10.782 15.27,18.051 10.42,34.575 -9.76,33.23 11.39,80.34 12.79,115.105 -3.75,3.949 -16.47,2.699 -18.07,13.305 -3.24,21.578 8.18,59.793 15.22,63.43 3.13,1.613 6.7,0.179 9.48,1.894 0,16.195 -16.09,106.281 -3.87,110.84 7.54,2.812 24.87,4.297 28.2,5.801 -0.2,3.84 -2.83,12.035 -6.02,12.48 -5.37,0.746 -16.39,2.828 -25.16,4.852 -26.92,6.203 -2.01,112.379 -1.68,112.808 7.41,9.782 41.78,-3.41 45.95,13.27 11.49,14.656 -8.87,71.074 30.35,140.523 13.24,23.453 38.6,47.137 68.17,37.097 9.91,-3.36 3.9,-17.608 21.32,-2.37 0.43,8.89 -3.69,16.34 -6.16,23.69 -28.96,86.39 69.15,133.2 137.84,83.84 7.72,-3.13 12.22,-4.67 18,-9 3.78,-19.56 23.17,-54.36 3.79,-77.21 -7.93,-1.7 -17.65,-6.13 -23.69,-10.42 -0.1,-7.9 0.92,-15.174 2.37,-19.892 1.3,-4.243 3.78,-5.926 -2.61,-8.524 -0.8,-0.324 -0.46,-2.969 -0.02,-3.969 16.03,-3.152 33.12,2.965 43.84,7.282 h 12.8 v 16.133 h 6.11 v 12.63 h 6.11 v -21.841 h 15.97 v -6.922 h 236.77 v -12.293 h 10.47 v 44.986 h 8.81 v -36.58 h 20.16 v -20.891 h 62.68 v 6.215 h 10.43 v -2.734 h 29.61 v -17.41 h -29.61 v -2.731 h -10.43 v 6.215 h -62.68 v -6.223 c -9.21,0 -18.41,0 -27.61,0 v 4.215 h -11.83 v -12.648 h -104.6" /></g></g></svg>